<?xml version="1.0" standalone="no"?>
<!DOCTYPE svg PUBLIC "-//W3C//DTD SVG 20010904//EN"
 "http://www.w3.org/TR/2001/REC-SVG-20010904/DTD/svg10.dtd">
<svg version="1.0" xmlns="http://www.w3.org/2000/svg"
 width="280.000000pt" height="280.000000pt" viewBox="0 0 280.000000 280.000000"
 preserveAspectRatio="xMidYMid meet">
<metadata>
Created by potrace 1.14, written by Peter Selinger 2001-2017
</metadata>
<g transform="translate(0.000000,280.000000) scale(0.100000,-0.100000)"
fill="#000000" stroke="none">
<path d="M189 2323 c-94 -28 -175 -126 -185 -226 -25 -248 260 -393 448 -228
105 92 114 265 18 373 -70 80 -179 111 -281 81z"/>
<path d="M1315 2323 c-49 -15 -122 -79 -190 -167 -16 -22 -34 -44 -40 -50 -8
-9 -85 -104 -145 -179 -8 -11 -20 -24 -25 -31 -6 -6 -28 -33 -50 -61 -22 -27
-42 -52 -45 -55 -3 -3 -41 -50 -85 -105 -44 -55 -86 -106 -93 -113 -7 -8 -25
-30 -40 -50 -26 -35 -39 -52 -79 -98 -10 -12 -79 -97 -153 -189 -74 -93 -151
-187 -170 -210 -19 -23 -48 -59 -65 -80 -16 -21 -47 -59 -67 -84 -51 -61 -72
-127 -65 -202 8 -75 35 -126 93 -178 l47 -41 122 0 c111 0 125 2 156 23 28 19
129 138 469 558 19 23 58 70 85 104 28 34 64 79 82 101 17 21 114 141 215 265
100 124 197 243 213 264 17 21 58 71 91 112 75 91 100 157 90 241 -20 167
-185 273 -351 225z"/>
<path d="M2446 2321 c-72 -23 -141 -91 -166 -163 -23 -65 -25 -105 -9 -162 56
-203 310 -265 456 -111 54 57 77 127 70 206 -7 69 -26 110 -76 162 -69 73
-178 100 -275 68z"/>
<path d="M1925 1689 c-46 -17 -89 -50 -125 -96 -79 -100 -96 -120 -109 -134
-9 -9 -27 -31 -41 -49 -30 -40 -72 -93 -80 -100 -4 -3 -31 -37 -62 -76 -31
-39 -63 -77 -70 -85 -7 -8 -29 -34 -48 -59 -34 -44 -50 -64 -80 -100 -8 -10
-28 -35 -45 -56 -16 -21 -47 -58 -68 -83 -98 -119 -84 -284 35 -385 l42 -36
124 0 c150 0 151 0 271 149 44 54 86 105 93 112 8 8 35 42 61 76 26 34 53 68
60 75 7 7 48 58 92 113 44 55 82 102 85 105 3 3 23 28 45 55 49 61 65 80 89
108 73 86 100 154 94 236 -14 180 -194 295 -363 230z"/>
</g>
</svg>
